<svg width="211" height="211" viewBox="0 0 211 211" fill="none" xmlns="http://www.w3.org/2000/svg">
<circle cx="105.5" cy="105.5" r="105.5" fill="#9DC3E0"/>
<g clip-path="url(#clip0)">
<rect x="59.8878" y="130.127" width="14" height="38" rx="3" transform="rotate(-15 59.8878 130.127)" fill="#062C36" stroke="black" stroke-width="2"/>
<path d="M67.8061 91.3697L79.9215 136.585L65.6115 140.419C64.8452 140.625 64.046 140.677 63.2595 140.574C62.473 140.47 61.7146 140.213 61.0276 139.816C60.3406 139.419 59.7385 138.891 59.2555 138.262C58.7726 137.632 58.4184 136.914 58.2131 136.148L49.2246 102.603C48.8099 101.055 49.027 99.4061 49.8281 98.0187C50.6291 96.6312 51.9486 95.6188 53.4961 95.2041L67.8061 91.3697Z" fill="#D3DCE5"/>
<path d="M117.096 64.1088L136.238 135.548C136.454 136.281 136.484 137.056 136.325 137.804C136.166 138.551 135.823 139.247 135.327 139.829C134.831 140.41 134.198 140.859 133.485 141.134C132.772 141.409 132.002 141.502 131.244 141.404L122.611 140.602L102.756 66.5006L109.843 61.5342C110.45 61.0705 111.164 60.7657 111.919 60.6474C112.674 60.5291 113.446 60.601 114.167 60.8567C114.887 61.1123 115.532 61.5436 116.043 62.1115C116.555 62.6794 116.916 63.3658 117.096 64.1088Z" fill="#D3DCE5"/>
<path d="M102.755 66.501L122.623 140.647L79.927 136.607L67.7997 91.3475L102.755 66.501Z" fill="#062F3A"/>
<path d="M40.1076 106.828L49.6698 104.266L57.7665 134.484L48.2043 137.046C46.6391 137.465 44.9715 137.246 43.5682 136.435C42.1649 135.625 41.1409 134.291 40.7215 132.726L35.7874 114.311C35.368 112.746 35.5875 111.078 36.3977 109.675C37.2079 108.272 38.5424 107.248 40.1076 106.828Z" fill="#062F3A"/>
<path fill-rule="evenodd" clip-rule="evenodd" d="M53.8387 96.4832C52.6305 96.807 51.6003 97.5974 50.9749 98.6807C50.3494 99.764 50.1799 101.051 50.5037 102.26L59.4922 135.805C59.6525 136.403 59.929 136.964 60.3061 137.456C60.6831 137.947 61.1533 138.359 61.6897 138.669C62.2261 138.979 62.8182 139.18 63.4323 139.26C64.0464 139.341 64.6703 139.3 65.2686 139.14L78.2995 135.649L66.8696 92.9916L53.8387 96.4832ZM48.6811 97.3564C49.6577 95.6648 51.2664 94.4304 53.1532 93.9248L67.4633 90.0905C68.1697 89.9012 68.8959 90.3204 69.0852 91.0269L81.2006 136.242C81.3899 136.949 80.9707 137.675 80.2642 137.864L65.9541 141.699C65.0199 141.949 64.0455 142.013 63.0866 141.886C62.1276 141.76 61.203 141.446 60.3653 140.963C59.5277 140.479 58.7936 139.835 58.2048 139.068C57.616 138.301 57.1841 137.425 56.9338 136.491L47.9453 102.945C47.4397 101.058 47.7044 99.0481 48.6811 97.3564Z" fill="black"/>
<path fill-rule="evenodd" clip-rule="evenodd" d="M112.124 61.9557C111.586 62.0399 111.078 62.2568 110.646 62.5868C110.632 62.5977 110.617 62.6083 110.603 62.6186L104.275 67.0531L123.652 139.369L131.366 140.085C131.382 140.087 131.397 140.089 131.413 140.091C131.953 140.16 132.501 140.094 133.008 139.898C133.516 139.703 133.966 139.383 134.319 138.97C134.672 138.556 134.916 138.06 135.029 137.528C135.143 136.996 135.121 136.444 134.967 135.923C134.964 135.912 134.961 135.901 134.958 135.891L115.816 64.4514L117.095 64.1087L115.808 64.4192C115.68 63.8904 115.423 63.4019 115.059 62.9977C114.695 62.5935 114.236 62.2866 113.723 62.1046C113.211 61.9227 112.661 61.8715 112.124 61.9557ZM118.379 63.781C118.146 62.8305 117.682 61.9523 117.027 61.2251C116.368 60.4936 115.537 59.9379 114.609 59.6086C113.682 59.2792 112.686 59.1866 111.714 59.339C110.75 59.4899 109.839 59.8764 109.062 60.464L101.995 65.416C101.54 65.7354 101.332 66.3057 101.476 66.8433L121.332 140.945C121.475 141.48 121.937 141.87 122.488 141.921L131.099 142.721C132.067 142.841 133.051 142.721 133.962 142.37C134.88 142.015 135.696 141.437 136.335 140.688C136.973 139.939 137.415 139.042 137.62 138.079C137.824 137.122 137.787 136.129 137.513 135.19L118.379 63.781Z" fill="black"/>
<path fill-rule="evenodd" clip-rule="evenodd" d="M103.204 65.2549C103.612 65.4018 103.922 65.7392 104.034 66.1581L123.902 140.304C124.014 140.723 123.914 141.17 123.634 141.502C123.354 141.833 122.93 142.006 122.498 141.965L79.8022 137.925C79.2513 137.873 78.7909 137.484 78.6477 136.95L66.5204 91.6901C66.3772 91.1557 66.5814 90.5885 67.0324 90.2679L101.988 65.4215C102.342 65.1702 102.796 65.108 103.204 65.2549ZM69.317 91.8936L80.9679 135.375L120.85 139.149L101.969 68.6844L69.317 91.8936Z" fill="black"/>
<path fill-rule="evenodd" clip-rule="evenodd" d="M40.4502 108.107C39.2243 108.436 38.1791 109.238 37.5445 110.337C36.9099 111.436 36.738 112.742 37.0664 113.968L42.0006 132.383C42.3291 133.609 43.1311 134.654 44.2302 135.288C45.3293 135.923 46.6355 136.095 47.8614 135.767L56.1444 133.547L48.7332 105.888L40.4502 108.107ZM39.7647 105.549C37.8602 106.059 36.2365 107.305 35.2507 109.013C34.2649 110.72 33.9978 112.749 34.508 114.654L39.4422 133.068C39.9525 134.973 41.1984 136.596 42.9059 137.582C44.6134 138.568 46.6425 138.835 48.547 138.325L58.1092 135.763C58.8157 135.573 59.2349 134.847 59.0456 134.141L50.9489 103.923C50.7596 103.217 50.0334 102.798 49.3269 102.987L39.7647 105.549Z" fill="black"/>
<path fill-rule="evenodd" clip-rule="evenodd" d="M144.73 62.4341C144.867 61.7155 145.56 61.2434 146.278 61.3797C152.859 62.6273 158.954 65.7064 163.862 70.2629C168.771 74.8194 172.295 80.6685 174.029 87.138C175.762 93.6075 175.635 100.435 173.662 106.835C171.689 113.236 167.95 118.95 162.875 123.321C162.321 123.798 161.485 123.735 161.008 123.181C160.53 122.627 160.593 121.791 161.147 121.314C165.844 117.268 169.305 111.979 171.131 106.055C172.957 100.131 173.075 93.8116 171.47 87.8235C169.866 81.8354 166.604 76.4216 162.061 72.2041C157.517 67.9867 151.876 65.1368 145.785 63.9819C145.066 63.8457 144.594 63.1527 144.73 62.4341Z" fill="black"/>
<path fill-rule="evenodd" clip-rule="evenodd" d="M140.866 73.4822C141.001 72.7634 141.693 72.2904 142.412 72.4257C147.012 73.2916 151.273 75.4393 154.706 78.6212C158.138 81.8032 160.602 85.89 161.814 90.411C163.025 94.932 162.935 99.7032 161.553 104.175C160.171 108.647 157.555 112.638 154.004 115.687C153.449 116.164 152.613 116.1 152.137 115.546C151.66 114.991 151.724 114.155 152.278 113.678C155.45 110.954 157.788 107.388 159.022 103.393C160.257 99.3981 160.337 95.1355 159.255 91.0965C158.173 87.0575 155.972 83.4064 152.905 80.5636C149.839 77.7209 146.032 75.8023 141.922 75.0286C141.203 74.8933 140.73 74.2009 140.866 73.4822Z" fill="black"/>
<path fill-rule="evenodd" clip-rule="evenodd" d="M135.185 84.1269C135.325 83.4091 136.021 82.9409 136.739 83.0813C139.514 83.6238 142.081 84.9344 144.149 86.8642C146.216 88.7939 147.7 91.2651 148.432 93.9967C149.164 96.7282 149.114 99.6104 148.289 102.315C147.463 105.02 145.895 107.439 143.763 109.296C143.211 109.777 142.375 109.719 141.895 109.167C141.414 108.616 141.472 107.779 142.023 107.299C143.782 105.767 145.075 103.773 145.755 101.542C146.436 99.3116 146.477 96.9348 145.873 94.6822C145.27 92.4296 144.046 90.3917 142.341 88.8003C140.637 87.209 138.519 86.1281 136.231 85.6807C135.513 85.5404 135.045 84.8447 135.185 84.1269Z" fill="black"/>
<g style="mix-blend-mode:multiply" opacity="0.25">
<g style="mix-blend-mode:multiply" opacity="0.25">
<path d="M77.4996 137.043C76.1509 137.07 74.8319 136.645 73.753 135.835C72.6741 135.025 71.8974 133.877 71.5465 132.575L62.558 99.0292C62.1692 97.5744 62.342 96.0266 63.0422 94.6935C63.7424 93.3603 64.9186 92.3395 66.3371 91.834L53.5135 95.2701C51.966 95.6847 50.6466 96.6972 49.8455 98.0846C49.0444 99.4721 48.8274 101.121 49.242 102.669L49.6879 104.332L40.1257 106.895C38.5605 107.314 37.226 108.338 36.4158 109.741C35.6056 111.145 35.3861 112.812 35.8055 114.377L40.7396 132.792C40.9473 133.567 41.3055 134.293 41.794 134.93C42.2824 135.567 42.8914 136.101 43.5863 136.502C44.2811 136.903 45.0482 137.163 45.8436 137.268C46.6391 137.373 47.4474 137.32 48.2224 137.112L57.7846 134.55L58.2305 136.214C58.4358 136.98 58.79 137.698 59.273 138.328C59.7559 138.957 60.358 139.485 61.045 139.882C61.7321 140.279 62.4905 140.536 63.277 140.64C64.0635 140.743 64.8627 140.691 65.6289 140.485L77.565 137.287L77.4996 137.043Z" fill="black"/>
</g>
</g>
<g style="mix-blend-mode:overlay">
<g style="mix-blend-mode:overlay">
<path d="M109.842 61.5342L103.109 66.3108C103.413 66.7399 103.645 67.216 103.796 67.72L122.926 139.115C123.047 139.627 123.084 140.155 123.036 140.679L131.244 141.404C132.005 141.503 132.78 141.409 133.496 141.13C134.212 140.852 134.847 140.399 135.343 139.812C135.839 139.225 136.179 138.523 136.333 137.77C136.487 137.018 136.45 136.238 136.226 135.504L129.829 111.631L129.582 111.864L123.174 87.9474L123.504 88.0254L117.095 64.1088C116.916 63.3658 116.554 62.6793 116.043 62.1115C115.532 61.5436 114.887 61.1123 114.166 60.8567C113.446 60.601 112.674 60.5291 111.919 60.6474C111.163 60.7657 110.45 61.0705 109.842 61.5342Z" fill="white"/>
</g>
</g>
</g>
<defs>
<clipPath id="clip0">
<rect width="147" height="147" fill="white" transform="translate(15.4814 53.5278) rotate(-15)"/>
</clipPath>
</defs>
</svg>
